<svg width="239" height="388" viewBox="0 0 239 388" fill="none" xmlns="http://www.w3.org/2000/svg">
<path d="M131.033 388C190.404 388 238.533 381.284 238.533 373C238.533 364.716 190.404 358 131.033 358C71.6626 358 23.5332 364.716 23.5332 373C23.5332 381.284 71.6626 388 131.033 388Z" fill="#F3F3F3"/>
<path d="M158.825 365.576H148.12L148.85 357.304H159.494L158.825 365.576Z" fill="#FFAB91"/>
<path d="M191.73 368.13H181.634L182.85 357.79L191.73 359.068V368.13Z" fill="#FFAB91"/>
<path d="M158.825 365.576H148.12L148.85 357.304H159.494L158.825 365.576Z" stroke="#46133C" stroke-width="3" stroke-miterlimit="10" stroke-linecap="round" stroke-linejoin="round"/>
<path d="M191.73 368.13H181.634L182.85 357.79L191.73 359.068V368.13Z" stroke="#46133C" stroke-width="3" stroke-miterlimit="10" stroke-linecap="round" stroke-linejoin="round"/>
<path d="M143.254 255.302C145.261 255.85 136.989 303.718 145.869 357.486C150.613 358.277 158.277 359.129 162.109 357.547C165.819 353.837 166.124 282.065 166.124 277.26C169.347 277.868 171.233 278.659 173.24 280.666C175.795 283.221 179.018 353.168 179.018 358.46C183.215 360.467 192.46 360.771 195.136 359.615C197.569 357.182 201.827 263.331 197.022 252.079C191.852 254.937 170.929 258.465 143.254 255.302Z" fill="#040404"/>
<g opacity="0.15">
<path opacity="0.15" d="M143.497 255.728C150.37 256.336 156.757 256.58 162.535 256.519C156.635 256.458 150.127 256.093 143.254 255.302C143.375 255.302 143.436 255.485 143.497 255.728Z" fill="#5F235A"/>
<path opacity="0.15" d="M161.866 277.26C161.866 282.065 161.501 353.837 157.852 357.547C156.757 357.973 155.297 358.216 153.716 358.338C156.939 358.52 160.102 358.399 162.17 357.547C165.698 354.019 166.184 289.485 166.184 278.598C164.968 277.929 163.63 277.564 161.866 277.26Z" fill="#5F235A"/>
<path opacity="0.15" d="M197.083 252.018C196.231 252.505 194.893 252.991 193.251 253.478C193.433 254.147 147.816 255.424 148.12 256.336C150.249 261.932 193.981 257.918 194.102 259.074C196.657 283.95 193.068 357.425 190.879 359.615C190.149 359.919 188.993 360.102 187.594 360.223C190.818 360.406 193.798 360.223 195.136 359.615C197.63 357.121 201.888 263.27 197.083 252.018Z" fill="#5F235A"/>
</g>
<path d="M197.448 253.174C197.326 252.748 197.204 252.322 197.083 252.018C193.433 254.086 182.12 256.397 166.245 256.519C180.782 256.701 191.852 254.998 197.448 253.174Z" fill="#5F235A"/>
<path d="M148.12 357.304C139.665 305.908 145.504 260.533 148.12 255.667C147.025 255.546 144.409 255.424 143.254 255.302C145.261 255.85 136.989 303.718 145.869 357.486C149.093 358.034 153.655 358.581 157.487 358.399C154.506 358.277 150.492 357.669 148.12 357.304Z" fill="white"/>
<path d="M180.356 358.885C181.634 344.531 179.687 282.43 174.639 279.693C172.145 278.355 171.172 277.442 167.948 276.834C167.948 277.017 169.408 277.625 169.408 277.99C170.929 278.537 172.145 279.328 173.362 280.544C175.916 283.099 179.14 353.046 179.14 358.338C182.12 359.737 187.594 360.345 191.487 360.102C188.081 360.041 182.546 359.98 180.356 358.885Z" fill="white"/>
<path d="M143.254 255.302C145.261 255.85 136.989 303.718 145.869 357.486C150.613 358.277 158.277 359.129 162.109 357.547C165.819 353.837 166.124 282.065 166.124 277.26C169.347 277.868 171.233 278.659 173.24 280.666C175.795 283.221 179.018 353.168 179.018 358.46C183.215 360.467 192.46 360.771 195.136 359.615C197.569 357.182 201.827 263.331 197.022 252.079C191.852 254.937 170.929 258.465 143.254 255.302Z" stroke="#46133C" stroke-width="3" stroke-miterlimit="10" stroke-linecap="round" stroke-linejoin="round"/>
<path d="M166.184 277.26L162.657 276.895" stroke="#46133C" stroke-width="3" stroke-miterlimit="10" stroke-linecap="round" stroke-linejoin="round"/>
<path d="M133.887 376.038C133.887 376.038 146.964 376.828 157.852 374.882C162.9 374.882 161.988 363.812 161.988 363.812C161.988 363.812 155.723 365.819 150.492 364.785C145.261 363.751 146.295 363.082 146.295 363.082C146.295 363.082 125.797 366.488 123.06 369.225C120.384 371.902 122.148 376.038 133.887 376.038Z" fill="#75CC9C"/>
<path d="M126.223 370.077C128.839 367.461 142.95 365.089 147.816 364.238C145.626 363.569 146.295 363.143 146.295 363.143C146.295 363.143 125.797 366.549 123.06 369.286C120.871 371.476 121.661 374.639 128.352 375.673C124.642 374.213 123.304 372.996 126.223 370.077Z" fill="white"/>
<path d="M171.354 378.957C171.598 380.964 173.605 385.404 183.884 382.971C191.122 381.268 191.913 376.585 193.373 373.422C194.832 370.259 192.947 364.907 192.947 364.907C192.947 364.907 191.913 367.096 188.689 367.096C184.127 367.096 180.052 364.359 180.052 364.359C179.809 363.934 170.929 375.186 171.354 378.957Z" fill="#75CC9C"/>
<path d="M185.161 381.998C174.943 384.431 173.97 378.957 173.727 376.889C173.422 374.274 177.741 367.887 180.417 364.481C180.235 364.359 180.113 364.299 180.113 364.299C179.87 363.873 170.929 375.125 171.354 378.896C171.598 380.903 173.605 385.344 183.884 382.911C187.047 382.181 188.993 380.843 190.271 379.322C189.176 379.991 186.804 381.633 185.161 381.998Z" fill="white"/>
<path d="M133.887 376.038C133.887 376.038 146.964 376.828 157.852 374.882C162.9 374.882 161.988 363.812 161.988 363.812C161.988 363.812 155.784 365.393 150.492 364.785C148.241 364.542 147.147 363.812 146.599 363.386C146.356 363.204 146.052 363.082 145.748 363.143C142.524 363.69 125.493 366.732 123.06 369.164C120.384 371.902 122.148 376.038 133.887 376.038Z" stroke="#46133C" stroke-width="3" stroke-miterlimit="10" stroke-linecap="round" stroke-linejoin="round"/>
<path d="M171.354 378.957C171.78 380.964 173.605 385.404 183.884 382.971C191.122 381.268 192.521 376.767 193.373 373.422C194.224 370.138 192.947 364.907 192.947 364.907C192.947 364.907 191.913 367.096 188.689 367.096C184.127 367.096 180.66 364.724 180.66 364.724C178.471 365.698 170.138 373.361 171.354 378.957Z" stroke="#46133C" stroke-width="3" stroke-miterlimit="10" stroke-linecap="round" stroke-linejoin="round"/>
<path d="M134.921 364.359C134.921 364.359 137.719 364.724 138.084 367.583" stroke="#46133C" stroke-width="3" stroke-miterlimit="10" stroke-linecap="round" stroke-linejoin="round"/>
<path d="M138.084 363.204C138.084 363.204 140.882 363.569 141.247 366.427" stroke="#46133C" stroke-width="3" stroke-miterlimit="10" stroke-linecap="round" stroke-linejoin="round"/>
<path d="M141.307 362.352C141.307 362.352 144.105 362.717 144.47 365.576" stroke="#46133C" stroke-width="3" stroke-miterlimit="10" stroke-linecap="round" stroke-linejoin="round"/>
<path d="M178.471 373.118C178.471 373.118 180.965 371.841 182.911 374.03" stroke="#46133C" stroke-width="3" stroke-miterlimit="10" stroke-linecap="round" stroke-linejoin="round"/>
<path d="M179.809 370.807C179.809 370.807 182.303 369.529 184.249 371.719" stroke="#46133C" stroke-width="3" stroke-miterlimit="10" stroke-linecap="round" stroke-linejoin="round"/>
<path d="M180.66 368.495C180.66 368.495 183.154 367.218 185.101 369.408" stroke="#46133C" stroke-width="3" stroke-miterlimit="10" stroke-linecap="round" stroke-linejoin="round"/>
<path d="M186.013 255.302C186.013 255.302 190.636 274.827 199.273 274.827" stroke="#46133C" stroke-width="3" stroke-miterlimit="10" stroke-linecap="round" stroke-linejoin="round"/>
<path d="M148.12 256.336C148.12 256.336 146.842 269.109 142.828 270.569" stroke="#46133C" stroke-width="3" stroke-miterlimit="10" stroke-linecap="round" stroke-linejoin="round"/>
<path d="M187.898 227.019H207.727C207.727 227.019 220.196 177.144 184.614 150.442C182.363 148.192 173.909 148.07 173.909 148.07C156.635 153.483 151.1 165.04 151.1 165.04L143.193 151.051C143.193 151.051 133.948 154.213 132.975 169.419C121.966 185.051 103.232 186.389 92.3443 175.563C88.7557 178.969 79.0848 189.126 79.0848 189.126C79.0848 189.126 89.0599 200.926 106.212 202.69C124.155 204.515 136.746 193.019 140.273 189.126C143.193 192.046 148.302 232.919 140.943 252.505C140.578 253.539 141.064 254.694 142.098 255.059C145.2 256.093 152.499 257.735 166.853 257.614C177.072 257.553 195.258 254.329 195.258 254.329L187.898 227.019Z" fill="#6C6C6C" fill-opacity="0.75"/>
<path d="M92.3443 176.84L81.9435 191.863L77.9291 188.336L92.3443 176.84Z" fill="#6C6C6C" fill-opacity="0.75"/>
<path opacity="0.15" d="M166.245 227.019C166.245 227.019 156.574 257.249 162.535 263.453C165.698 266.737 189.054 269.414 190.818 270.022C192.643 270.63 199.09 270.569 199.09 270.569L198.36 258.769L166.245 227.019Z" fill="#5F235A"/>
<path d="M180.052 172.947C180.052 172.947 185.526 184.443 186.013 205.366C186.256 216.983 183.397 227.019 183.397 227.019L187.047 229.027C187.047 229.027 189.906 224.891 189.966 208.651C190.027 194.053 186.378 182.01 180.052 172.947Z" fill="#6C6C6C" fill-opacity="0.75"/>
<path d="M147.451 164.493C147.451 164.493 147.998 163.398 149.215 161.695L143.193 151.051C143.193 151.051 142.098 151.416 140.638 152.51L147.451 164.493Z" fill="#6C6C6C" fill-opacity="0.75"/>
<path d="M184.614 150.442C183.215 149.043 179.505 148.496 176.889 148.253C178.592 148.618 180.174 149.165 180.965 149.956C216.546 176.657 204.078 226.533 204.078 226.533H184.249L191.609 253.66C191.609 253.66 173.422 256.884 163.204 256.945C156.696 257.006 151.647 256.701 147.755 256.215C151.891 256.945 158.034 257.492 166.853 257.431C177.072 257.37 195.258 254.147 195.258 254.147L187.898 227.019H207.727C207.727 227.019 220.196 177.144 184.614 150.442Z" fill="#6C6C6C" fill-opacity="0.75"/>
<path d="M138.874 186.268C135.347 190.16 120.567 203.846 102.745 202.143C103.84 202.325 104.996 202.507 106.212 202.629C121.175 204.15 134.921 193.931 140.273 189.065C139.848 187.545 139.3 186.632 138.874 186.268Z" fill="#6C6C6C" fill-opacity="0.75"/>
<path d="M153.29 166.439C153.29 166.439 159.007 154.517 176.768 148.983C176.768 148.983 180.235 149.043 183.397 149.652C180.235 148.192 173.909 148.07 173.909 148.07C160.041 152.389 153.716 160.722 151.83 163.824L153.29 166.439Z" fill="#6C6C6C" fill-opacity="0.75"/>
<path d="M92.3443 176.84C103.536 188.031 123.304 186.997 134.617 170.94C135.408 158.532 141.186 153.301 143.68 151.902L143.193 151.051C143.193 151.051 133.948 154.213 132.975 169.419C121.966 185.051 103.232 186.389 92.3443 175.563C88.7557 178.969 79.0848 189.126 79.0848 189.126C79.0848 189.126 79.0848 188.457 79.7538 189.126C82.4301 186.267 89.364 179.638 92.3443 176.84Z" fill="white"/>
<path d="M142.098 191.255C141.916 191.438 141.672 191.681 141.49 191.924C144.349 202.082 147.39 235.352 140.943 252.444C140.578 253.478 141.064 254.633 142.098 254.998C142.402 255.12 142.828 255.242 143.193 255.363C150.188 234.683 145.079 194.175 142.098 191.255Z" fill="white"/>
<path d="M187.898 227.019H207.727C207.727 227.019 220.196 177.144 184.614 150.442C182.363 148.192 173.909 148.07 173.909 148.07C156.635 153.483 151.1 165.04 151.1 165.04L143.193 151.051C143.193 151.051 133.948 154.213 132.975 169.419C121.966 185.051 103.232 186.389 92.3443 175.563C88.7557 178.969 79.0848 189.126 79.0848 189.126C79.0848 189.126 89.0599 200.926 106.212 202.69C124.155 204.515 136.746 193.019 140.273 189.126C143.193 192.046 148.302 232.919 140.943 252.505C140.578 253.539 141.064 254.694 142.098 255.059C145.2 256.093 152.499 257.735 166.853 257.614C177.072 257.553 195.258 254.329 195.258 254.329L187.898 227.019Z" stroke="#46133C" stroke-width="3" stroke-miterlimit="10" stroke-linecap="round" stroke-linejoin="round"/>
<path d="M211.316 265.521C197.63 265.217 184.067 264.244 170.442 262.723C166.367 262.236 163.326 258.648 163.508 254.573C163.934 246.605 164.725 238.637 165.759 230.669C166.306 226.594 169.895 223.613 174.031 223.917C187.412 224.83 200.793 226.411 214.235 228.479C218.128 229.087 220.987 232.494 220.865 236.447C220.622 243.868 220.074 251.227 219.283 258.587C218.797 262.601 215.33 265.642 211.316 265.521Z" fill="#FFA45A"/>
<path d="M211.316 265.521C197.63 265.217 184.067 264.244 170.442 262.723C166.367 262.236 163.326 258.648 163.508 254.573C163.934 246.605 164.725 238.637 165.759 230.669C166.306 226.594 169.895 223.613 174.031 223.917C187.412 224.83 200.793 226.411 214.235 228.479C218.128 229.087 220.987 232.494 220.865 236.447C220.622 243.868 220.074 251.227 219.283 258.587C218.797 262.601 215.33 265.642 211.316 265.521Z" fill="#FFA45A"/>
<path d="M166.184 255.424C166.61 247.456 167.401 239.488 168.435 231.52C168.982 227.445 172.571 224.465 176.707 224.769C190.088 225.681 203.469 227.263 216.911 229.331C217.337 229.392 217.763 229.513 218.128 229.635C217.033 228.722 215.695 228.053 214.174 227.81C200.732 225.742 187.351 224.161 173.97 223.248C169.895 222.944 166.245 225.925 165.698 230C164.664 237.968 163.934 245.936 163.447 253.903C163.265 257.492 165.515 260.655 168.861 261.75C167.097 260.229 166.063 257.918 166.184 255.424Z" fill="white"/>
<path d="M211.316 265.521C197.63 265.217 184.067 264.244 170.442 262.723C166.367 262.236 163.326 258.648 163.508 254.573C163.934 246.605 164.725 238.637 165.759 230.669C166.306 226.594 169.895 223.613 174.031 223.917C187.412 224.83 200.793 226.411 214.235 228.479C218.128 229.087 220.987 232.494 220.865 236.447C220.622 243.868 220.074 251.227 219.283 258.587C218.797 262.601 215.33 265.642 211.316 265.521Z" stroke="#46133C" stroke-width="3" stroke-miterlimit="10" stroke-linecap="round" stroke-linejoin="round"/>
<path d="M187.898 227.019C195.623 190.708 179.079 171.609 179.079 171.609" stroke="#46133C" stroke-width="3" stroke-miterlimit="10" stroke-linecap="round" stroke-linejoin="round"/>
<path d="M137.597 184.929C137.597 184.929 139.118 185.72 140.273 189.065" stroke="#46133C" stroke-width="4" stroke-miterlimit="10" stroke-linecap="round" stroke-linejoin="round"/>
<path d="M160.041 206.887C160.041 206.887 160.771 210.719 158.886 217.713" stroke="#46133C" stroke-width="3" stroke-miterlimit="10" stroke-linecap="round" stroke-linejoin="round"/>
<path d="M156.331 129.641C156.331 129.641 156.513 137.548 156.513 140.954C156.513 144.36 145.261 155.369 145.261 155.369C145.261 155.369 140.821 148.8 142.402 139.737C143.984 130.675 152.742 129.641 152.742 129.641H156.331Z" fill="#CC1F49"/>
<path d="M146.417 156.95C146.417 152.814 150.674 139.129 144.531 126.234C140.273 117.354 125.493 114.617 117.039 107.805C92.466 87.9763 104.692 33.4783 104.692 33.4783C104.692 33.4783 114.484 17.9074 146.477 17.9074C157.122 17.9074 166.549 22.4692 175.186 48.745C183.762 75.0209 175.916 89.6186 175.916 89.6186C171.415 98.803 166.975 121.004 179.14 142.17L181.694 146.002C181.694 146.002 157.182 156.099 154.02 166.135C150.857 176.11 146.417 156.95 146.417 156.95Z" fill="#D8846A"/>
<path opacity="0.43" d="M179.079 142.109C166.914 120.943 171.354 98.7421 175.855 89.5578C175.855 89.5578 183.762 74.9601 175.125 48.6842C166.549 22.4083 157.061 17.8466 146.417 17.8466C133.644 17.8466 124.398 20.3403 117.89 23.3207C123.973 21.1919 131.819 19.6713 141.916 19.6713C144.288 19.6713 146.599 19.9146 148.91 20.5836C141.003 21.3135 107.307 27.8825 104.692 33.4783C104.692 33.4783 108.341 44.7307 122.27 49.2316C131.819 52.3336 142.22 51.3604 151.1 50.5089C154.263 51.4821 154.75 61.2139 172.997 66.5664C179.748 68.5736 170.442 95.5793 168.982 103.669C167.583 111.333 168.556 126.782 172.023 134.932C174.274 140.285 171.902 139.251 167.158 142.535C165.698 143.508 159.372 147.584 159.007 148.131C154.385 154.335 159.311 152.328 149.823 166.986C151.161 169.419 152.682 170.332 153.959 166.135C157.061 156.099 181.634 146.002 181.634 146.002L179.079 142.109Z" fill="#D8846A"/>
<path d="M148.059 158.532C148.059 154.092 153.776 140.102 147.207 126.295C142.646 116.807 128.17 113.401 119.168 106.102C97.636 88.767 103.536 46.677 105.969 31.836C105.117 32.8092 104.752 33.4174 104.752 33.4174C104.752 33.4174 92.5268 87.9763 117.1 107.744C125.554 114.556 140.334 117.293 144.592 126.174C150.735 139.129 146.477 152.754 146.477 156.89C146.477 156.89 147.694 162.668 148.85 164.736C147.511 161.208 148.059 158.532 148.059 158.532Z" fill="white"/>
<path d="M146.417 156.95C146.417 152.814 150.674 139.129 144.531 126.234C140.273 117.354 125.493 114.617 117.039 107.805C92.466 87.9763 104.692 33.4783 104.692 33.4783C104.692 33.4783 114.484 17.9074 146.477 17.9074C157.122 17.9074 166.549 22.4692 175.186 48.745C183.762 75.0209 175.916 89.6186 175.916 89.6186C171.415 98.803 166.975 121.004 179.14 142.17L181.694 146.002C181.694 146.002 157.182 156.099 154.02 166.135C150.857 176.11 146.417 156.95 146.417 156.95Z" stroke="#46133C" stroke-width="3" stroke-miterlimit="10" stroke-linecap="round" stroke-linejoin="round"/>
<path d="M119.837 69.9725C119.837 69.9725 120.08 75.9332 115.883 81.2857C116.978 84.0228 122.209 83.597 122.209 83.597" stroke="#46133C" stroke-width="3" stroke-miterlimit="10" stroke-linecap="round" stroke-linejoin="round"/>
<path d="M117.525 90.7742C117.465 91.2 125.797 93.6329 130.42 88.3413C127.987 94.1804 124.642 96.7349 117.1 96.7349" fill="#FF5757"/>
<path d="M113.998 89.801C113.937 90.2268 125.797 93.6329 130.359 88.3413C127.926 94.1804 124.581 96.7349 117.039 96.7349" stroke="#46133C" stroke-width="3" stroke-miterlimit="10" stroke-linecap="round" stroke-linejoin="round"/>
<path d="M117.039 96.7349C117.039 96.7349 119.168 93.5721 117.039 90.7742" stroke="#46133C" stroke-width="3" stroke-miterlimit="10" stroke-linecap="round" stroke-linejoin="round"/>
<path opacity="0.71" d="M140.638 77.6971L130.663 76.359C126.892 75.8724 124.277 71.9189 124.763 67.6004L125.372 62.552C125.858 58.2335 129.325 55.0099 133.096 55.3748L143.071 56.348C147.025 56.7129 149.884 60.7273 149.336 65.2283L148.728 70.5199C148.241 75.0209 144.592 78.2445 140.638 77.6971Z" fill="white"/>
<path opacity="0.71" d="M111.686 75.8724L100.434 75.1425C96.1763 74.8992 92.9526 70.9457 93.1351 66.4447L93.3784 61.1531C93.6217 56.5913 97.2103 53.0635 101.468 53.1852L112.72 53.5501C117.16 53.6717 120.688 57.6253 120.445 62.3695L120.202 67.9045C119.958 72.5879 116.126 76.1765 111.686 75.8724Z" fill="white"/>
<path d="M132.427 69.9725C133.469 69.9725 134.313 68.4475 134.313 66.5664C134.313 64.6852 133.469 63.1603 132.427 63.1603C131.386 63.1603 130.542 64.6852 130.542 66.5664C130.542 68.4475 131.386 69.9725 132.427 69.9725Z" fill="#46133C"/>
<path d="M113.998 67.9653C115.039 67.9653 115.883 66.4404 115.883 64.5592C115.883 62.6781 115.039 61.1531 113.998 61.1531C112.956 61.1531 112.112 62.6781 112.112 64.5592C112.112 66.4404 112.956 67.9653 113.998 67.9653Z" fill="#46133C"/>
<path d="M146.417 131.161C146.417 131.161 138.935 140.771 143.193 151.051C146.234 158.349 147.755 164.188 151.1 168.994C155.114 164.006 158.764 153.301 170.138 148.618C181.451 143.995 179.991 141.258 179.991 139.677C179.991 138.217 178.045 134.142 175.49 134.142" stroke="#46133C" stroke-width="3" stroke-miterlimit="10" stroke-linecap="round" stroke-linejoin="round"/>
<path d="M162.109 161.451C162.109 161.451 156.513 168.02 156.513 189.065" stroke="#46133C" stroke-width="3" stroke-miterlimit="10" stroke-linecap="round" stroke-linejoin="round"/>
<path d="M146.417 156.95C146.417 156.95 143.801 172.704 146.417 175.319" stroke="#46133C" stroke-width="3" stroke-miterlimit="10" stroke-linecap="round" stroke-linejoin="round"/>
<path d="M21.728 105.129C21.728 105.129 18.261 108.839 20.4507 114.435C23.2486 121.429 21.728 123.193 20.4507 126.66" stroke="#46133C" stroke-width="3" stroke-miterlimit="10" stroke-linecap="round" stroke-linejoin="round"/>
<path d="M158.399 45.3997C159.798 46.7987 154.506 49.9007 162.231 57.6253C170.016 65.4107 173.422 65.5932 173.422 71.7364C173.422 77.8796 174.213 92.4165 179.991 95.0319C185.77 97.6473 198.968 77.3322 197.144 56.7129C195.927 43.6967 190.453 33.0525 184.188 28.7948C181.451 14.0147 165.698 4.8911 153.776 2.88392C135.833 -0.0964432 125.676 10.1219 124.824 9.27041C118.255 11.2776 112.964 11.5817 108.949 11.1559C102.806 10.5477 97.8185 16.0827 99.035 22.1042V22.165C101.529 34.1473 111.261 40.4122 114.18 42.2977C120.141 46.1296 125.676 47.2244 127.196 47.5285C133.157 48.5625 138.388 47.7718 143.011 47.1028C151.708 45.8255 156.818 43.7575 158.399 45.3997Z" fill="#6D524E"/>
<path d="M158.399 45.3997C159.798 46.7987 154.506 49.9007 162.231 57.6253C170.016 65.4107 173.422 65.5932 173.422 71.7364C173.422 77.8796 174.213 92.4165 179.991 95.0319C185.77 97.6473 198.968 77.3322 197.144 56.7129C195.927 43.6967 190.453 33.0525 184.188 28.7948C181.451 14.0147 165.698 4.8911 153.776 2.88392C135.833 -0.0964432 125.676 10.1219 124.824 9.27041C118.255 11.2776 112.964 11.5817 108.949 11.1559C102.806 10.5477 97.8185 16.0827 99.035 22.1042V22.165C101.529 34.1473 111.261 40.4122 114.18 42.2977C120.141 46.1296 125.676 47.2244 127.196 47.5285C133.157 48.5625 138.388 47.7718 143.011 47.1028C151.708 45.8255 156.818 43.7575 158.399 45.3997Z" fill="#067D4B"/>
<g opacity="0.34">
<path opacity="0.34" d="M183.823 27.3959C182.728 22.8949 180.417 19.0022 177.376 15.6569C179.383 18.5765 180.904 21.9218 181.573 25.5712C182.303 26.0578 183.093 26.666 183.823 27.3959Z" fill="#067D4B"/>
<path opacity="0.34" d="M159.25 42.1152C157.669 40.5338 149.093 42.6018 140.395 43.94C135.772 44.6698 130.602 45.4605 124.581 44.3657C123.06 44.1224 117.525 43.0276 111.565 39.1349C110.044 38.1617 106.577 35.9112 103.353 32.3226C107.185 37.9184 112.173 41.1421 114.18 42.4194C120.141 46.2513 125.676 47.3461 127.196 47.6502C133.157 48.6842 138.388 47.8935 143.011 47.2244C148.728 46.3729 152.925 45.1564 155.54 44.9131C160.649 44.6698 159.798 42.6627 159.25 42.1152Z" fill="#067D4B"/>
<path opacity="0.34" d="M159.676 54.3408C159.555 54.2192 159.433 54.0367 159.25 53.915C159.92 55.0099 160.893 56.2263 162.231 57.5645C165.698 61.0314 168.313 63.0386 170.138 64.6808C168.8 61.7613 165.454 60.1799 159.676 54.3408Z" fill="#067D4B"/>
<path opacity="0.34" d="M197.083 56.7129C196.11 45.9471 192.156 36.7627 187.29 31.5319C190.94 36.9452 193.738 44.609 194.528 53.4284C196.414 73.9869 183.154 94.302 177.376 91.7474C177.072 91.6258 176.829 91.4433 176.585 91.2608C177.437 93.0247 178.592 94.3628 179.991 94.9711C185.77 97.5865 198.968 77.2714 197.083 56.7129Z" fill="#067D4B"/>
</g>
<path d="M101.833 24.9629V24.9021C100.616 18.8806 105.604 13.2848 111.747 13.9538C115.761 14.3796 120.262 13.2848 126.831 11.2776C128.96 10.0003 138.145 2.45815 156.088 5.49934C162.717 6.59416 171.05 10.1828 177.133 15.4136C170.746 8.54053 161.44 4.22204 153.715 2.94474C135.772 -0.0356216 125.615 10.1828 124.763 9.33123C118.194 11.3384 112.903 11.6425 108.888 11.2168C102.745 10.6085 97.7577 16.1435 98.9741 22.165V22.2259C100.556 29.9505 105.178 35.303 109.071 38.6483C106.03 35.3638 103.049 30.8628 101.833 24.9629Z" fill="white"/>
<path d="M186.986 31.5927C187.29 31.836 187.594 32.0185 187.959 32.2618C187.594 31.836 187.29 31.4711 186.925 31.1061C186.925 31.2886 186.925 31.4102 186.986 31.5927Z" fill="#067D4B"/>
<path d="M121.783 10.3044C117.586 11.6425 112.355 11.5209 108.888 11.1559C102.745 10.5477 97.7576 16.0827 98.9741 22.1042V22.165C101.468 34.1473 111.2 40.4122 114.119 42.2977C120.08 46.1296 125.615 47.2244 127.136 47.5285C133.096 48.5625 138.327 47.7718 142.95 47.1028C151.708 45.7647 156.757 43.6966 158.399 45.2781C159.798 46.677 154.506 49.779 162.231 57.5036C170.016 65.2891 173.422 65.4716 173.422 71.6147C173.422 77.7579 174.213 92.2948 179.991 94.9102C185.77 97.5257 198.968 77.2105 197.144 56.5913C195.927 43.575 190.453 32.9308 184.188 28.6732C181.451 13.893 165.698 4.76945 153.776 2.76226C135.833 -0.218099 129.204 7.01993 125.25 8.84464" stroke="#19724C" stroke-width="3" stroke-miterlimit="10" stroke-linecap="round" stroke-linejoin="round"/>
<path d="M169.043 39.5606C168.374 39.7431 161.258 37.6143 159.007 45.5213" stroke="#19724C" stroke-width="3" stroke-miterlimit="10" stroke-linecap="round" stroke-linejoin="round"/>
<path d="M173.301 128.302C173.301 128.302 177.558 122.95 184.188 129.641C190.879 136.331 195.258 136.453 200.246 143.508C205.963 151.598 205.963 162.79 200.185 164.188C198.786 164.553 195.015 158.714 191.426 154.943C187.838 151.172 182.424 148.739 180.052 151.051C177.68 153.362 168.496 161.451 160.954 153.909C154.506 147.462 179.991 144.482 179.991 139.737C179.991 134.932 174.7 134.811 173.301 128.302Z" fill="#6C6C6C"/>
<path d="M177.619 149.043C174.213 153.423 166.61 154.7 160.406 153.301C160.528 153.483 160.71 153.727 160.954 153.909C168.496 161.451 178.836 152.267 181.208 149.895C182.363 148.739 188.385 151.051 191.426 154.943C189.176 148.861 179.505 146.61 177.619 149.043Z" fill="#FF3B61"/>
<path d="M200.246 143.508C195.258 136.453 190.879 136.331 184.188 129.641C182.181 127.633 180.478 126.721 178.957 126.417C185.465 132.743 189.784 132.986 194.65 139.92C199.881 147.34 200.306 157.498 195.806 160.113C197.752 162.485 199.333 164.371 200.185 164.188C205.963 162.729 205.963 151.537 200.246 143.508Z" fill="#FF3B61"/>
<path d="M173.301 128.302C173.301 128.302 177.558 122.95 184.188 129.641C190.879 136.331 195.258 136.453 200.246 143.508C205.963 151.598 205.963 162.79 200.185 164.188C198.786 164.553 195.015 158.714 191.426 154.943C187.838 151.172 182.424 148.739 180.052 151.051C177.68 153.362 168.496 161.451 160.954 153.909C154.506 147.462 179.991 144.482 179.991 139.737C179.991 134.932 174.7 134.811 173.301 128.302Z" stroke="#46133C" stroke-width="3" stroke-miterlimit="10" stroke-linecap="round" stroke-linejoin="round"/>
<path d="M180.66 265.521C177.315 263.696 180.782 256.823 180.782 256.823C179.505 258.1 177.193 258.526 174.213 258.526C171.233 258.526 171.963 256.093 175.673 252.444C179.383 248.733 181.694 247.639 183.702 246.605C189.662 243.624 188.567 238.393 188.567 238.393L203.104 237.968C203.104 237.968 200.976 244.172 201.705 245.631C205.902 254.329 198.847 263.392 198.36 264.426C197.569 266.068 194.042 267.041 192.156 266.068C189.176 267.71 185.101 266.129 184.918 265.764C183.519 266.555 181.573 266.068 180.66 265.521Z" fill="#FFAB91"/>
<path d="M180.66 265.521C177.315 263.696 180.782 256.823 180.782 256.823C179.505 258.1 177.193 258.526 174.213 258.526C171.233 258.526 171.963 256.093 175.673 252.444C179.383 248.733 181.694 247.639 183.702 246.605C189.662 243.624 188.567 238.393 188.567 238.393L203.104 237.968C203.104 237.968 200.976 244.172 201.705 245.631C205.902 254.329 198.847 263.392 198.36 264.426C197.569 266.068 194.042 267.041 192.156 266.068C189.176 267.71 185.101 266.129 184.918 265.764C183.519 266.555 181.573 266.068 180.66 265.521Z" fill="#FFAB91"/>
<path d="M175.125 254.268C179.14 250.254 182.12 249.22 186.013 247.152C191.365 244.293 190.635 239.367 190.514 238.029L188.628 238.454C188.628 238.454 189.723 243.685 183.762 246.665C181.755 247.699 179.444 248.794 175.734 252.505C172.023 256.215 171.294 258.587 174.274 258.587C173.544 257.492 172.692 256.641 175.125 254.268Z" fill="white"/>
<g opacity="0.43">
<path opacity="0.43" d="M176.342 257.249C175.734 257.857 174.882 258.283 173.848 258.587C173.97 258.587 174.091 258.587 174.213 258.587C174.76 258.587 175.247 258.587 175.734 258.526C176.099 257.735 176.342 257.249 176.342 257.249Z" fill="#FFAB91"/>
<path opacity="0.43" d="M203.104 238.029L199.637 238.15C199.09 239.914 197.752 244.962 198.36 246.24C202.8 255.424 197.022 267.65 193.677 266.555C195.501 266.676 197.691 265.764 198.299 264.548C198.786 263.514 205.841 254.451 201.645 245.753C200.976 244.233 203.104 238.029 203.104 238.029Z" fill="#FFAB91"/>
</g>
<path d="M180.66 265.521C177.315 263.696 180.782 256.823 180.782 256.823C179.505 258.1 177.072 259.438 174.213 258.526C172.571 257.979 171.963 256.093 175.673 252.444C179.383 248.733 181.694 247.639 183.702 246.605C189.662 243.624 188.567 238.393 188.567 238.393L203.104 237.968C203.104 237.968 200.976 244.172 201.705 245.631C205.902 254.329 198.847 263.392 198.36 264.426C197.569 266.068 194.042 267.041 192.156 266.068C189.176 267.71 185.101 266.129 184.918 265.764C183.519 266.555 181.573 266.068 180.66 265.521Z" stroke="#46133C" stroke-width="3" stroke-miterlimit="10" stroke-linecap="round" stroke-linejoin="round"/>
<path d="M186.013 263.21C186.013 263.21 185.83 264.426 184.918 265.825" stroke="#46133C" stroke-width="3" stroke-miterlimit="10" stroke-linecap="round" stroke-linejoin="round"/>
<path d="M192.704 262.905C192.704 262.905 192.156 264.548 192.156 266.129" stroke="#46133C" stroke-width="3" stroke-miterlimit="10" stroke-linecap="round" stroke-linejoin="round"/>
<path d="M184.979 227.019C184.979 227.019 190.696 224.404 199.212 225.681C207.727 227.019 209.856 227.019 209.856 227.019L207.362 238.029C207.362 238.029 186.439 238.029 184.979 238.029C183.519 238.029 184.979 236.204 184.979 236.204V227.019Z" fill="#FF3B61"/>
<path d="M187.594 236.204V227.019C187.594 227.019 190.696 225.62 195.745 225.377C189.176 225.073 184.979 227.019 184.979 227.019V236.204C184.979 236.204 183.519 238.028 184.979 238.028C185.283 238.028 186.195 238.028 187.594 238.028C186.135 238.028 187.594 236.204 187.594 236.204Z" fill="white"/>
<path d="M184.979 227.019C184.979 227.019 190.696 224.404 199.212 225.681C207.727 227.019 209.856 227.019 209.856 227.019L207.362 238.029C207.362 238.029 186.439 238.029 184.979 238.029C183.519 238.029 184.979 236.204 184.979 236.204V227.019Z" stroke="#46133C" stroke-width="3" stroke-miterlimit="10" stroke-linecap="round" stroke-linejoin="round"/>
<path d="M100.738 62.552L93.3784 61.6396" stroke="#46133C" stroke-width="3" stroke-miterlimit="10" stroke-linecap="round" stroke-linejoin="round"/>
<path d="M111.686 75.8724L100.434 75.1425C96.1763 74.8992 92.9526 70.9457 93.1351 66.4447L93.3784 61.1531C93.6217 56.5913 97.2103 53.0635 101.468 53.1852L112.72 53.5501C117.16 53.6717 120.688 57.6253 120.445 62.3695L120.202 67.9045C119.958 72.5879 116.126 76.1765 111.686 75.8724Z" stroke="#46133C" stroke-width="3" stroke-miterlimit="10" stroke-linecap="round" stroke-linejoin="round"/>
<path d="M140.638 77.6971L130.663 76.359C126.892 75.8724 124.277 71.9189 124.763 67.6004L125.372 62.552C125.858 58.2335 129.325 55.0099 133.096 55.3748L143.071 56.348C147.025 56.7129 149.884 60.7273 149.336 65.2283L148.728 70.5199C148.241 75.0209 144.592 78.2445 140.638 77.6971Z" stroke="#46133C" stroke-width="3" stroke-miterlimit="10" stroke-linecap="round" stroke-linejoin="round"/>
<path d="M170.442 64.5592L149.275 62.3695" stroke="#46133C" stroke-width="3" stroke-miterlimit="10" stroke-linecap="round" stroke-linejoin="round"/>
<path d="M120.749 62.4304C120.749 62.4304 123.182 61.0314 125.068 62.552" stroke="#46133C" stroke-width="4" stroke-miterlimit="10" stroke-linecap="round" stroke-linejoin="round"/>
<path d="M167.34 68.3911C167.34 68.3911 170.685 62.3695 173.727 65.4107C176.768 68.4519 176.403 75.6291 172.693 82.0764C170.077 86.5165 166.124 84.5702 167.401 82.0764" fill="#FFAB91"/>
<path d="M167.34 68.3911C167.34 68.3911 170.685 62.3695 173.727 65.4107C176.768 68.4519 176.403 75.6291 172.693 82.0764C170.077 86.5165 166.124 84.5702 167.401 82.0764" fill="#FFAB91"/>
<path opacity="0.43" d="M173.666 65.4107C172.084 63.8293 170.503 64.6808 169.286 65.7757C169.955 65.7148 170.625 65.9581 171.294 66.6272C174.335 69.6684 173.97 76.8456 170.26 83.2929C169.955 83.8403 169.59 84.3269 169.226 84.6918C170.32 84.631 171.598 83.8403 172.632 82.0156C176.342 75.6291 176.707 68.4519 173.666 65.4107Z" fill="#FFAB91"/>
<path d="M167.522 67.4179C167.522 67.4179 170.625 62.3695 173.666 65.4107C176.707 68.4519 176.342 75.6291 172.632 82.0764C170.016 86.5165 165.576 85.1176 165.576 81.3465" stroke="#46133C" stroke-width="3" stroke-miterlimit="10" stroke-linecap="round" stroke-linejoin="round"/>
<path d="M156.513 193.87C157.823 193.87 158.886 192.645 158.886 191.133C158.886 189.622 157.823 188.396 156.513 188.396C155.203 188.396 154.141 189.622 154.141 191.133C154.141 192.645 155.203 193.87 156.513 193.87Z" fill="#46133C"/>
<path d="M156.513 193.87C157.823 193.87 158.886 192.645 158.886 191.133C158.886 189.622 157.823 188.396 156.513 188.396C155.203 188.396 154.141 189.622 154.141 191.133C154.141 192.645 155.203 193.87 156.513 193.87Z" stroke="#46133C" stroke-width="4" stroke-miterlimit="10" stroke-linecap="round" stroke-linejoin="round"/>
<path d="M146.417 179.759C147.727 179.759 148.789 178.534 148.789 177.022C148.789 175.511 147.727 174.285 146.417 174.285C145.107 174.285 144.045 175.511 144.045 177.022C144.045 178.534 145.107 179.759 146.417 179.759Z" fill="#46133C"/>
<path d="M146.417 179.759C147.727 179.759 148.789 178.534 148.789 177.022C148.789 175.511 147.727 174.285 146.417 174.285C145.107 174.285 144.045 175.511 144.045 177.022C144.045 178.534 145.107 179.759 146.417 179.759Z" stroke="#46133C" stroke-width="4" stroke-miterlimit="10" stroke-linecap="round" stroke-linejoin="round"/>
<path d="M160.954 159.201C160.954 159.201 163.326 159.627 164.299 162.06" stroke="#46133C" stroke-width="3" stroke-miterlimit="10" stroke-linecap="round" stroke-linejoin="round"/>
<path d="M168.982 75.2642C168.982 75.2642 169.53 71.9189 171.963 71.189" stroke="#46133C" stroke-width="3" stroke-miterlimit="10" stroke-linecap="round" stroke-linejoin="round"/>
<path d="M130.42 28.5515C130.42 28.5515 129.812 28.5515 128.839 28.1866C128.352 28.0041 127.805 27.7608 127.136 27.3959C126.527 27.0309 125.797 26.666 125.068 26.1794C124.703 25.9361 124.277 25.6928 123.912 25.4495C123.547 25.2062 123.121 24.9021 122.695 24.6588C121.844 24.1114 120.992 23.4423 120.141 22.7733C119.715 22.4083 119.289 22.1042 118.803 21.7393C118.377 21.3743 117.951 21.0094 117.525 20.6444C116.674 19.9146 115.822 19.063 114.971 18.2723C114.545 17.8466 114.119 17.4208 113.754 17.0558C113.329 16.6301 112.964 16.2043 112.538 15.7786C111.747 14.927 111.017 14.0755 110.287 13.224C109.618 12.3724 108.949 11.5209 108.341 10.7302C107.733 9.93947 107.185 9.14876 106.699 8.4797C106.212 7.74982 105.786 7.08075 105.421 6.47252C105.056 5.86428 104.752 5.31686 104.509 4.89109C104.022 3.97874 103.779 3.43133 103.779 3.43133C103.718 3.30968 103.779 3.18804 103.901 3.18804C103.962 3.12721 104.083 3.18803 104.144 3.24886C104.144 3.24886 104.57 3.67462 105.239 4.46533C105.543 4.83027 105.969 5.31686 106.395 5.86428C106.82 6.41169 107.368 7.01993 107.854 7.68899C108.402 8.35805 108.949 9.08794 109.557 9.87865C110.166 10.6085 110.835 11.4601 111.565 12.2508C112.295 13.0415 113.024 13.893 113.815 14.6837C114.18 15.1095 114.606 15.4744 114.971 15.9002C115.397 16.326 115.761 16.6909 116.187 17.1167C116.613 17.5424 117.039 17.9074 117.404 18.2723C117.829 18.6373 118.194 19.063 118.681 19.428C119.107 19.7929 119.533 20.1579 119.958 20.5228C120.384 20.8877 120.81 21.1919 121.236 21.5568C121.661 21.9217 122.087 22.2259 122.452 22.53C122.878 22.8341 123.243 23.1382 123.669 23.4423C124.094 23.7465 124.459 23.9898 124.824 24.2939C125.189 24.5372 125.554 24.7805 125.919 25.0238C126.649 25.5103 127.318 25.8753 127.865 26.2402C128.474 26.6052 128.96 26.9093 129.386 27.2134C130.238 27.8217 130.602 28.3082 130.602 28.3082C130.663 28.3691 130.663 28.4907 130.542 28.6124C130.481 28.5515 130.481 28.5515 130.42 28.5515Z" fill="#46133C"/>
<path d="M148.059 32.6267C148.059 32.6267 147.876 32.9309 147.451 33.1133C147.268 33.235 147.025 33.235 146.721 33.235C146.417 33.235 146.113 33.2958 145.748 33.2958C144.349 33.3566 142.524 33.3566 140.638 33.1133C139.726 32.9917 138.814 32.8092 137.962 32.6267C137.536 32.5051 137.111 32.3834 136.746 32.3226C136.381 32.201 136.016 32.0793 135.651 31.9577C135.347 31.836 135.043 31.7144 134.739 31.6535C134.495 31.5319 134.252 31.3494 134.13 31.2278C134.009 31.0453 133.887 30.8628 133.826 30.7412C133.765 30.6195 133.765 30.4979 133.765 30.4979C133.765 30.4979 133.826 30.4371 134.009 30.3763C134.13 30.3154 134.313 30.2546 134.556 30.1938C134.799 30.133 135.043 30.133 135.286 30.1938C135.529 30.2546 135.833 30.3154 136.137 30.4371C136.442 30.4979 136.807 30.6195 137.171 30.6804C137.536 30.7412 137.901 30.8628 138.327 30.9237C138.753 30.9845 139.179 31.1061 139.604 31.167C140.03 31.2278 140.456 31.2886 140.882 31.3494C141.733 31.4711 142.646 31.5927 143.436 31.6535C144.288 31.7144 145.018 31.7752 145.687 31.836C145.991 31.836 146.295 31.836 146.599 31.836C146.842 31.836 147.086 31.836 147.329 31.9577C147.511 32.0185 147.694 32.1401 147.816 32.201C147.937 32.2618 147.998 32.3226 147.998 32.3226C148.12 32.3834 148.12 32.5659 148.059 32.6267Z" fill="#46133C"/>
<path d="M160.649 25.4495C160.649 25.4495 159.798 25.8753 158.277 26.1186C157.487 26.2402 156.574 26.3011 155.479 26.2402C154.385 26.1794 153.168 26.1186 151.891 25.9969C150.553 25.8753 149.154 25.632 147.633 25.3279C146.173 25.0238 144.592 24.6588 143.011 24.1722C142.22 23.9289 141.429 23.6248 140.638 23.3815C139.848 23.0774 139.057 22.7733 138.205 22.4083C137.415 22.0434 136.624 21.7393 135.833 21.3135C135.468 21.131 135.043 20.9486 134.678 20.7053L133.522 20.0362C132.001 19.1847 130.481 18.2115 129.082 17.1775C128.352 16.6909 127.683 16.1435 127.014 15.6569C126.345 15.1095 125.737 14.5621 125.068 14.0755C123.851 12.9807 122.635 11.8858 121.601 10.791C121.053 10.2436 120.567 9.69617 120.08 9.20958C119.593 8.66217 119.107 8.17558 118.742 7.68899C117.89 6.65498 117.1 5.74263 116.552 4.83027C115.944 3.97874 115.397 3.18803 115.032 2.51897C114.241 1.18085 113.876 0.390139 113.876 0.390139C113.815 0.268492 113.876 0.086017 113.998 0.0251933C114.119 -0.0356305 114.241 0.025197 114.302 0.0860207C114.302 0.0860207 114.91 0.755082 115.883 1.91073C116.37 2.51897 116.978 3.18803 117.647 4.03956C118.316 4.8911 119.107 5.74263 119.898 6.71581C120.323 7.20239 120.81 7.68899 121.236 8.17558C121.722 8.66217 122.209 9.20958 122.756 9.69617C123.79 10.7302 124.946 11.7642 126.162 12.859C126.771 13.3456 127.44 13.893 128.048 14.3796C128.717 14.8662 129.386 15.3528 130.055 15.8394C131.454 16.8125 132.914 17.7249 134.374 18.5156C135.103 18.9414 135.894 19.3063 136.624 19.7321C137.354 20.097 138.145 20.462 138.935 20.8269C139.726 21.1919 140.456 21.4352 141.247 21.7393C142.037 21.9826 142.767 22.2867 143.558 22.53C145.079 23.0166 146.599 23.4423 147.998 23.7465C149.458 24.0506 150.796 24.2939 152.073 24.4763C153.351 24.6588 154.506 24.7805 155.54 24.8413C156.574 24.9021 157.487 24.9629 158.216 25.0238C159.737 25.2062 160.589 25.3887 160.589 25.3887C160.649 25.3279 160.649 25.3887 160.649 25.4495C160.649 25.3887 160.649 25.4495 160.649 25.4495Z" fill="#46133C"/>
<path d="M65.0345 151.902C66.5551 142.231 53.9037 138.399 48.9162 142.474C46.4224 155.673 36.0824 163.884 48.4904 168.994C55.9109 172.035 56.3975 167.23 60.2902 171.183C65.4603 176.353 69.1705 178.421 69.1705 178.421L79.8147 168.994C77.2601 167.108 63.5747 161.147 65.0345 151.902Z" fill="#FFAB91"/>
<path opacity="0.43" d="M62.6015 170.028C58.1006 164.736 57.0058 167.169 51.6533 165.405C39.2452 161.208 46.7874 154.274 49.8894 141.805C49.5244 141.988 49.2203 142.231 48.9162 142.414C46.4224 155.612 36.0824 163.824 48.4904 168.933C55.9109 171.974 56.3975 167.169 60.2902 171.122C65.4603 176.292 69.1705 178.36 69.1705 178.36L70.9952 176.718C70.3262 176.414 66.9809 175.198 62.6015 170.028Z" fill="#FFAB91"/>
<path d="M63.6356 151.294C62.9057 161.086 75.0704 167.595 81.0311 170.028L79.8147 168.994C77.3209 167.108 63.5747 161.147 65.0345 151.902C66.4943 142.839 54.512 138.886 48.9162 142.474C53.7213 139.555 64.183 143.022 63.6356 151.294Z" fill="white"/>
<path d="M65.0345 151.902C66.5551 142.231 53.9037 138.399 48.9162 142.474C44.9018 145.455 36.0824 163.884 48.4904 168.994C55.9109 172.035 56.3975 167.23 60.2902 171.183C65.4603 176.353 69.1705 178.421 69.1705 178.421L79.8147 168.994C77.2601 167.108 63.5747 161.147 65.0345 151.902Z" stroke="#46133C" stroke-width="3" stroke-miterlimit="10" stroke-linecap="round" stroke-linejoin="round"/>
<path d="M40.0968 136.514H31.8856V140.832H40.0968C42.0431 140.832 43.6245 142.657 43.6245 144.847V151.78C43.6245 154.031 42.0431 155.795 40.0968 155.795H31.8856V160.113H40.0968C44.1111 160.113 47.3348 156.403 47.3348 151.78V144.847C47.3348 140.224 44.1111 136.514 40.0968 136.514Z" fill="#49565A"/>
<path opacity="0.42" d="M40.0968 136.514H31.8856V140.832H40.0968C42.0431 140.832 43.6245 142.657 43.6245 144.847V151.78C43.6245 154.031 42.0431 155.795 40.0968 155.795H31.8856V160.113H40.0968C44.1111 160.113 47.3348 156.403 47.3348 151.78V144.847C47.3348 140.224 44.1111 136.514 40.0968 136.514Z" fill="#939EC5"/>
<path d="M40.0968 136.514H31.8856V140.832H39.3669C41.3132 140.832 42.8947 142.657 42.8947 144.847V151.78C42.8947 154.031 41.3132 155.795 39.3669 155.795H31.8856V160.113H40.0968C44.1111 160.113 47.3348 156.403 47.3348 151.78V144.847C47.3348 140.224 44.1111 136.514 40.0968 136.514Z" stroke="#46133C" stroke-width="3" stroke-miterlimit="10" stroke-linecap="round" stroke-linejoin="round"/>
<path d="M3.23757 129.701C1.47368 136.939 1.59533 145.333 3.60251 152.571C5.24475 158.289 8.28594 162.607 11.3271 165.405H28.5402C31.6423 162.668 34.6835 158.349 36.2649 152.571C38.3329 145.333 38.3937 136.939 36.6298 129.701H3.23757Z" fill="#49565A"/>
<path d="M3.23757 129.701C1.47368 136.939 1.59533 145.333 3.60251 152.571C5.24475 158.289 8.28594 162.607 11.3271 165.405H28.5402C31.6423 162.668 34.6835 158.349 36.2649 152.571C38.3329 145.333 38.3937 136.939 36.6298 129.701H3.23757Z" fill="#49565A"/>
<path d="M5.73134 152.632C3.66334 145.394 3.60251 137 5.3664 129.762H3.29839C1.53451 137 1.65616 145.394 3.66334 152.632C5.30558 158.349 8.34677 162.668 11.388 165.466H13.456C10.4148 162.668 7.31276 158.349 5.73134 152.632Z" fill="white"/>
<path opacity="0.42" d="M36.7515 129.701H31.034C32.7371 137.487 32.9804 147.523 31.034 154.031C29.6351 158.654 25.9248 164.979 22.0321 165.405H28.6011C31.7031 162.668 34.7443 158.349 36.3257 152.571C38.3937 145.333 38.4545 136.939 36.7515 129.701Z" fill="#939EC5"/>
<path d="M3.23757 129.701C1.47368 136.939 1.59533 145.333 3.60251 152.571C5.24475 158.289 8.28594 162.607 11.3271 165.405H28.5402C31.6423 162.668 34.6835 158.349 36.2649 152.571C38.3329 145.333 38.3937 136.939 36.6298 129.701H3.23757Z" stroke="#46133C" stroke-width="3" stroke-miterlimit="10" stroke-linecap="round" stroke-linejoin="round"/>
<path d="M44.7802 164.979C49.342 164.432 51.41 161.208 48.8554 159.14C47.6389 158.106 42.3472 158.532 40.5833 159.627C38.6978 160.843 40.7658 165.466 44.7802 164.979Z" fill="#FFAB91"/>
<path d="M44.7802 164.979C49.342 164.432 51.41 161.208 48.8554 159.14C47.6389 158.106 42.3472 158.532 40.5833 159.627C38.6978 160.843 40.7658 165.466 44.7802 164.979Z" stroke="#46133C" stroke-width="3" stroke-miterlimit="10" stroke-linecap="round" stroke-linejoin="round"/>
<path d="M40.8875 155.369C44.4761 155.065 47.4564 153.727 46.7265 151.355C46.1791 149.591 41.3132 147.462 38.9411 149.347C37.2989 150.686 37.5421 155.612 40.8875 155.369Z" fill="#FFAB91"/>
<path d="M40.8875 155.369C44.4761 155.065 47.4564 153.727 46.7265 151.355C46.1791 149.591 41.3132 147.462 38.9411 149.347C37.2989 150.686 37.5421 155.612 40.8875 155.369Z" stroke="#46133C" stroke-width="3" stroke-miterlimit="10" stroke-linecap="round" stroke-linejoin="round"/>
<path d="M41.3741 148.374C47.7606 149.165 51.41 145.151 46.3616 142.292C44.1111 141.015 40.0359 140.285 38.3937 142.17C36.7515 144.117 38.5762 148.07 41.3741 148.374Z" fill="#FFAB91"/>
<path d="M41.3741 148.374C47.7606 149.165 51.41 145.151 46.3616 142.292C44.1111 141.015 40.0359 140.285 38.3937 142.17C36.7515 144.117 38.5762 148.07 41.3741 148.374Z" stroke="#46133C" stroke-width="3" stroke-miterlimit="10" stroke-linecap="round" stroke-linejoin="round"/>
<path d="M53.478 161.634C53.478 161.634 50.1935 158.471 51.3492 154.153C52.5048 149.834 53.478 148.496 53.478 148.496C53.478 148.496 46.6657 149.773 46.6657 147.036C46.6657 144.299 48.4296 139.92 56.8233 141.197" fill="#FFAB91"/>
<path d="M53.478 161.634C53.478 161.634 50.9234 158.593 51.3492 154.153C51.7749 149.834 54.2079 148.253 54.2079 148.253C54.2079 148.253 46.4224 150.382 45.8142 147.705C45.206 145.029 48.6729 139.068 58.0398 141.562" stroke="#46133C" stroke-width="3" stroke-miterlimit="10" stroke-linecap="round" stroke-linejoin="round"/>
<path d="M123.729 105.007C123.729 105.007 126.284 105.554 127.744 104.095" stroke="#46133C" stroke-width="3" stroke-miterlimit="10" stroke-linecap="round" stroke-linejoin="round"/>
<path d="M67.4674 181.462C67.4674 181.462 72.8199 187.058 75.3137 189.552C78.659 188.944 76.591 191.012 78.659 188.944C80.727 186.876 95.8113 174.042 95.8113 174.042L84.2548 165.466C84.2548 165.405 67.4674 178.117 67.4674 181.462Z" fill="#FF3B61"/>
<path d="M77.9899 187.18C76.2261 186.267 70.1437 179.09 70.1437 179.09C70.1437 177.874 72.3942 175.38 75.2529 172.704C71.2385 176.171 67.4674 179.881 67.4674 181.462C67.4674 181.462 72.8199 187.058 75.3137 189.552C78.659 188.944 76.591 191.012 78.659 188.944C78.9631 188.64 79.5105 188.153 80.2404 187.484C80.058 187.423 79.7538 188.031 77.9899 187.18Z" fill="#EE406D"/>
<path d="M81.8827 186.024C86.931 181.584 95.8721 173.981 95.8721 173.981L95.8113 173.92C91.7361 177.448 84.2548 183.835 81.8827 186.024Z" fill="#EE406D"/>
<path d="M84.2548 165.405C84.2548 165.405 83.5249 165.952 82.4301 166.804L93.9258 175.38C93.9258 175.38 80.8487 186.511 77.3817 189.734C77.625 189.978 77.5034 190.099 78.659 188.944C80.727 186.876 95.8113 174.042 95.8113 174.042L84.2548 165.405Z" fill="white"/>
<path d="M67.4674 181.462C67.4674 181.462 75.6178 191.985 78.659 188.944C80.727 186.876 95.8113 174.042 95.8113 174.042L84.2548 165.466C84.2548 165.405 67.4674 178.117 67.4674 181.462Z" stroke="#46133C" stroke-width="3" stroke-miterlimit="10" stroke-linecap="round" stroke-linejoin="round"/>
<path d="M13.9425 98.3164C13.9425 98.3164 10.7189 104.277 12.3611 109.021C14.0034 113.705 15.7064 115.955 13.9425 119.361" stroke="#46133C" stroke-width="3" stroke-miterlimit="10" stroke-linecap="round" stroke-linejoin="round"/>
</svg>
