<svg width="80" height="86" viewBox="0 0 80 86" fill="none" xmlns="http://www.w3.org/2000/svg">
<path d="M22.3919 9C22.3919 9 26.9073 12.791 24.0555 18.5085C20.4114 25.6554 22.3919 27.4576 24.0555 31" stroke="#46133C" stroke-width="3" stroke-miterlimit="10" stroke-linecap="round" stroke-linejoin="round"/>
<path d="M40.0968 43.1973H31.8856V47.5158H40.0968C42.0431 47.5158 43.6245 49.3405 43.6245 51.5302V58.4641C43.6245 60.7145 42.0431 62.4784 40.0968 62.4784H31.8856V66.7969H40.0968C44.1111 66.7969 47.3348 63.0867 47.3348 58.4641V51.5302C47.3348 46.9076 44.1111 43.1973 40.0968 43.1973Z" fill="#49565A"/>
<path opacity="0.42" d="M40.0968 43.1973H31.8856V47.5158H40.0968C42.0431 47.5158 43.6245 49.3405 43.6245 51.5302V58.4641C43.6245 60.7145 42.0431 62.4784 40.0968 62.4784H31.8856V66.7969H40.0968C44.1111 66.7969 47.3348 63.0867 47.3348 58.4641V51.5302C47.3348 46.9076 44.1111 43.1973 40.0968 43.1973Z" fill="#939EC5"/>
<path d="M40.0968 43.1973H31.8856V47.5158H39.3669C41.3132 47.5158 42.8947 49.3405 42.8947 51.5302V58.4641C42.8947 60.7145 41.3132 62.4784 39.3669 62.4784H31.8856V66.7969H40.0968C44.1111 66.7969 47.3348 63.0867 47.3348 58.4641V51.5302C47.3348 46.9076 44.1111 43.1973 40.0968 43.1973Z" stroke="#46133C" stroke-width="3" stroke-miterlimit="10" stroke-linecap="round" stroke-linejoin="round"/>
<path d="M3.23757 36.385C1.47368 43.6231 1.59533 52.0167 3.60251 59.2548C5.24475 64.9722 8.28594 69.2907 11.3271 72.0886H28.5402C31.6423 69.3515 34.6835 65.033 36.2649 59.2548C38.3329 52.0167 38.3937 43.6231 36.6298 36.385H3.23757Z" fill="#49565A"/>
<path d="M3.23757 36.385C1.47368 43.6231 1.59533 52.0167 3.60251 59.2548C5.24475 64.9722 8.28594 69.2907 11.3271 72.0886H28.5402C31.6423 69.3515 34.6835 65.033 36.2649 59.2548C38.3329 52.0167 38.3937 43.6231 36.6298 36.385H3.23757Z" fill="#49565A"/>
<path d="M5.73137 59.3156C3.66336 52.0776 3.60253 43.6839 5.36642 36.4459H3.29842C1.53453 43.6839 1.65618 52.0776 3.66336 59.3156C5.3056 65.033 8.34679 69.3515 11.388 72.1494H13.456C10.4148 69.3515 7.31278 65.033 5.73137 59.3156Z" fill="white"/>
<path opacity="0.42" d="M36.7515 36.385H31.034C32.7371 44.1705 32.9804 54.2064 31.034 60.7145C29.6351 65.3371 25.9248 71.6628 22.0321 72.0886H28.6011C31.7031 69.3515 34.7443 65.033 36.3257 59.2548C38.3937 52.0167 38.4545 43.6231 36.7515 36.385Z" fill="#939EC5"/>
<path d="M3.23757 36.385C1.47368 43.6231 1.59533 52.0167 3.60251 59.2548C5.24475 64.9722 8.28594 69.2907 11.3271 72.0886H28.5402C31.6423 69.3515 34.6835 65.033 36.2649 59.2548C38.3329 52.0167 38.3937 43.6231 36.6298 36.385H3.23757Z" stroke="#46133C" stroke-width="3" stroke-miterlimit="10" stroke-linecap="round" stroke-linejoin="round"/>
<path d="M15.0477 2C15.0477 2 11.824 7.96073 13.4662 12.705C15.1085 17.3884 16.8116 19.6389 15.0477 23.045" stroke="#46133C" stroke-width="3" stroke-miterlimit="10" stroke-linecap="round" stroke-linejoin="round"/>
</svg>
